<svg width="128" height="128" viewBox="0 0 128 128" fill="none" xmlns="http://www.w3.org/2000/svg">
<path fill-rule="evenodd" clip-rule="evenodd" d="M37.7914 88.2507C38.0935 88.5863 38.4291 88.922 38.748 89.2409L39.7549 90.2142L21.7308 112.031C20.7071 111.125 19.7002 110.185 18.7268 109.212C17.7535 108.239 16.8137 107.299 15.9242 106.275L37.7411 88.2507H37.7914ZM45.3266 94.5273L31.9009 119.483C29.5258 118.114 27.244 116.589 25.0705 114.918L43.0107 92.8491C43.7659 93.4029 44.5379 93.9064 45.3266 94.3931V94.5273ZM33.5791 82.7796C34.049 83.5516 34.5692 84.3236 35.123 85.0788L13.1551 102.919C11.4863 100.75 9.96147 98.4734 8.59038 96.1049L33.5623 82.6789L33.5791 82.7796ZM51.6367 97.5985L43.3295 124.602C40.7424 123.718 38.2144 122.669 35.7608 121.463L49.0523 96.4405C49.9026 96.8321 50.7585 97.1846 51.62 97.4978L51.6367 97.5985ZM30.5079 76.3687C30.8212 77.2414 31.1736 78.0973 31.5652 78.9364L6.54295 92.2449C5.32684 89.7901 4.27835 87.2557 3.40467 84.6592L30.5079 76.3687ZM58.4 99.26L55.5638 127.455C52.8462 127.064 50.1558 126.503 47.5083 125.776L55.6812 98.723C56.5707 98.9411 57.477 99.109 58.4 99.26ZM28.7458 69.6054C28.8801 70.5116 29.0647 71.4179 29.2828 72.3241L2.14601 80.4804C1.44081 77.8382 0.908245 75.1529 0.551698 72.4416L28.7458 69.6054ZM28.3263 62.6406C28.3263 63.5637 28.3263 64.5035 28.3263 65.4265L0.132143 68.1621C-0.0440476 65.4293 -0.0440476 62.6881 0.132143 59.9554L28.3263 62.6406ZM65.3814 99.6628L68.1001 127.874C65.3672 128.042 62.6265 128.042 59.8936 127.874L62.6123 99.6628C63.5346 99.7131 64.459 99.7131 65.3814 99.6628ZM72.3124 98.723L80.4854 125.86C77.8379 126.587 75.1475 127.148 72.4299 127.538L69.5937 99.3439C70.4999 99.1929 71.423 99.025 72.3124 98.8069V98.723ZM29.2828 55.6759C29.0647 56.5821 28.8801 57.4884 28.7458 58.4114L0.551698 55.5584C0.908962 52.8527 1.44152 50.1731 2.14601 47.5364L29.2828 55.6927V55.6759ZM78.9414 96.4405L92.2329 121.463C89.7717 122.665 87.2383 123.713 84.6473 124.602L76.3737 97.4978C77.224 97.1846 78.0799 96.8321 78.9414 96.4405ZM31.6156 48.9461C31.2296 49.7852 30.8604 50.6244 30.5415 51.5138L3.4718 43.1226C4.3642 40.5282 5.4237 37.9943 6.64364 35.5369L31.6156 48.9629V48.9461ZM84.9662 92.8491L102.906 114.851C100.725 116.511 98.4439 118.035 96.076 119.416L82.667 94.5273C83.4558 94.0406 84.211 93.5372 84.9662 92.9834V92.8491ZM35.123 43.0051C34.5692 43.7603 34.049 44.5155 33.5791 45.3043L8.62394 31.8783C10.003 29.5148 11.5275 27.2392 13.1887 25.0646L35.123 43.0051ZM112.069 106.275C111.163 107.299 110.24 108.289 109.267 109.262C108.293 110.236 107.287 111.176 106.263 112.082L88.2387 90.2142L89.2457 89.2409L90.2023 88.2507L112.069 106.275ZM21.7308 15.935L39.7549 37.7522L38.748 38.7256C38.4291 39.0445 38.0935 39.3801 37.7914 39.7158L15.9745 21.6914C16.864 20.6844 17.8038 19.6775 18.7772 18.7041C19.7505 17.7307 20.7575 16.7909 21.7812 15.9014L21.7308 15.935ZM119.403 96.0881C118.033 98.4624 116.508 100.744 114.839 102.919L92.8874 84.9781C93.4412 84.2229 93.9615 83.4509 94.4314 82.6789L119.403 96.1049V96.0881ZM31.9176 8.60103L45.3434 33.5566C44.5546 34.0433 43.7827 34.5635 43.0275 35.1006L25.0873 13.1659C27.2608 11.4951 29.5426 9.97019 31.9176 8.60103ZM124.589 84.6592C123.715 87.2557 122.667 89.7901 121.451 92.2449L96.4285 78.9364C96.8088 78.0973 97.1613 77.2414 97.4857 76.3687L124.589 84.6592ZM43.3967 3.38167L51.6535 30.5022C50.7808 30.8154 49.925 31.1679 49.0858 31.5595L35.8111 6.52C38.2723 5.31802 40.8057 4.2699 43.3967 3.38167ZM127.442 72.4416C127.058 75.1548 126.497 77.8401 125.764 80.4804L98.7108 72.3241C98.929 71.4179 99.1136 70.5116 99.2479 69.6054L127.442 72.4416ZM55.5638 0.545434L58.4 28.74C57.477 28.891 56.5707 29.0757 55.6812 29.277L47.5083 2.22368C50.1558 1.49646 52.8462 0.935948 55.5638 0.545434ZM127.862 59.9051C128.046 62.6319 128.046 65.3681 127.862 68.0949L99.6674 65.3929C99.6674 64.4699 99.6674 63.5469 99.6674 62.6071L127.862 59.9051ZM68.1001 0.125872L65.3814 28.3372C64.4528 28.3372 63.5297 28.3372 62.6123 28.3372L59.8936 0.125872C62.6265 -0.0419573 65.3672 -0.0419573 68.1001 0.125872ZM125.848 47.5364C126.581 50.1767 127.142 52.862 127.526 55.5752L99.3318 58.4282C99.1975 57.5052 99.0129 56.5989 98.7947 55.6927L125.848 47.5364ZM80.5357 2.22368L72.3124 29.277C71.423 29.0757 70.4999 28.891 69.5937 28.74L72.4299 0.545434C75.1453 0.902827 77.8357 1.42971 80.4854 2.12299L80.5357 2.22368ZM92.2833 6.62069L78.9414 31.5762C78.0855 31.1735 77.2632 30.821 76.3737 30.5022L84.6473 3.39846C87.2383 4.28668 89.7717 5.3348 92.2329 6.53678L92.2833 6.62069ZM121.434 35.7886C122.643 38.2467 123.691 40.7806 124.572 43.3743L97.4857 51.7656C97.1669 50.9097 96.7977 50.0873 96.4117 49.1979L121.434 35.7886ZM102.856 13.1323L84.8823 35.0838C84.1271 34.5467 83.3551 34.0265 82.5663 33.5398L95.9921 8.56746C98.3672 9.93662 100.649 11.4616 102.822 13.1323H102.856ZM114.771 25.0143C116.436 27.1804 117.961 29.4506 119.336 31.8112L94.3978 45.2372C93.9111 44.4484 93.4077 43.6764 92.8538 42.9212L114.771 24.9639V25.0143ZM106.263 15.935C107.287 16.8244 108.277 17.7643 109.267 18.7376C110.257 19.711 111.163 20.6844 112.069 21.7249L90.2526 39.7661C89.9393 39.4081 89.6205 39.0724 89.296 38.7591L88.2891 37.7858L106.313 15.9685L106.263 15.935Z" fill="black"/>
</svg>
